<?xml version="1.0" standalone="no"?>
<!DOCTYPE svg PUBLIC "-//W3C//DTD SVG 20010904//EN"
 "http://www.w3.org/TR/2001/REC-SVG-20010904/DTD/svg10.dtd">
<svg version="1.0" xmlns="http://www.w3.org/2000/svg"
 width="205.000000pt" height="79.000000pt" viewBox="0 0 205.000000 79.000000"
 preserveAspectRatio="xMidYMid meet">

<g transform="translate(0.000000,79.000000) scale(0.100000,-0.100000)"
fill="#000000" stroke="none">
<path d="M110 707 c0 -6 -41 -193 -46 -210 -5 -16 -1 -18 27 -15 30 3 34 7 42
43 5 22 14 58 20 80 l11 40 10 -80 11 -80 32 -3 c30 -3 33 0 53 45 11 26 29
66 40 88 17 37 18 38 15 10 -2 -16 -7 -56 -10 -88 l-5 -58 32 3 33 3 10 113
10 113 -54 -3 -53 -3 -27 -64 c-25 -61 -26 -63 -32 -35 -4 16 -7 46 -8 67 l-1
37 -55 0 c-30 0 -55 -1 -55 -3z"/>
<path d="M448 623 c-22 -49 -46 -100 -54 -115 -14 -28 -14 -28 20 -28 26 0 36
5 41 20 5 16 15 20 50 20 35 0 45 -4 50 -20 4 -14 15 -20 36 -20 34 0 34 -4
12 128 l-17 102 -49 0 -48 0 -41 -87z m92 3 c0 -13 3 -31 6 -40 5 -13 -1 -16
-25 -16 -36 0 -36 -1 -14 45 19 41 33 45 33 11z"/>
<path d="M665 698 c-2 -7 -9 -47 -15 -88 -6 -41 -13 -87 -16 -102 -5 -26 -3
-28 25 -28 25 0 32 5 37 28 6 26 41 72 54 72 3 0 14 -22 24 -50 17 -47 20 -50
52 -50 19 0 34 2 34 4 0 3 -12 37 -27 77 l-27 73 45 38 44 38 -39 0 c-30 0
-48 -9 -89 -42 l-50 -43 5 43 c6 41 5 42 -23 42 -16 0 -31 -6 -34 -12z"/>
<path d="M900 643 c-6 -38 -14 -89 -17 -115 l-6 -48 86 0 c82 0 97 6 97 36 0
2 -26 4 -59 4 -57 0 -58 1 -53 25 4 22 9 25 47 25 38 0 43 3 47 25 5 24 3 25
-38 25 -37 0 -44 3 -44 20 0 18 7 20 60 20 33 0 60 4 60 9 0 5 3 16 6 25 5 14
-6 16 -84 16 l-90 0 -12 -67z"/>
<path d="M745 456 c-53 -24 -78 -60 -83 -120 -4 -48 -1 -57 21 -80 23 -23 53
-33 82 -26 6 1 34 2 63 2 47 0 52 2 52 21 0 12 3 39 6 60 l7 37 -46 0 c-32 0
-47 -5 -51 -16 -9 -22 -8 -22 17 -26 21 -3 21 -4 -6 -22 -22 -15 -35 -17 -55
-10 -23 8 -27 16 -30 52 -3 34 2 47 22 67 30 30 71 33 88 5 13 -21 68 -29 68
-9 0 24 -24 52 -55 65 -42 17 -61 17 -100 0z"/>
<path d="M1170 451 c-47 -25 -85 -97 -76 -144 9 -51 45 -79 99 -79 62 0 101
23 126 75 25 52 26 69 5 112 -25 54 -92 70 -154 36z m88 -43 c7 -7 12 -31 12
-54 0 -34 -5 -47 -26 -63 -33 -26 -49 -26 -75 0 -16 16 -19 27 -14 52 13 61
71 97 103 65z"/>
<path d="M90 363 c-12 -54 -24 -106 -27 -116 -4 -16 0 -18 28 -15 31 3 33 6
46 63 25 115 26 115 37 25 11 -85 11 -85 42 -88 29 -3 32 0 72 85 25 55 39 77
37 58 -2 -16 -7 -56 -10 -87 l-5 -58 30 0 c16 0 30 1 31 3 0 1 6 53 13 115
l12 113 -55 -3 -54 -3 -28 -65 -27 -64 -7 67 -7 67 -53 0 -53 0 -22 -97z"/>
<path d="M425 428 c-3 -18 -12 -70 -19 -115 l-13 -83 88 0 c84 0 99 6 99 36 0
2 -27 4 -61 4 -52 0 -60 2 -55 16 3 9 6 20 6 25 0 5 20 9 45 9 41 0 45 2 45
25 0 23 -4 25 -40 25 -36 0 -40 3 -40 25 0 24 3 25 59 25 55 0 71 8 71 36 0 2
-40 4 -90 4 l-89 0 -6 -32z"/>
<path d="M916 356 c-9 -58 -16 -110 -16 -115 0 -7 33 -11 90 -11 83 0 90 1 90
20 0 18 -7 20 -56 20 l-57 0 7 53 c4 28 10 71 13 95 6 41 5 42 -24 42 l-30 0
-17 -104z"/>
<path d="M1366 438 c-3 -13 -10 -57 -16 -98 -6 -41 -14 -83 -16 -92 -5 -16 3
-18 73 -18 43 0 89 6 103 13 33 17 49 61 31 89 -9 15 -10 23 -2 31 6 6 11 23
11 38 0 42 -32 59 -112 59 -62 0 -68 -2 -72 -22z m122 -33 c13 -13 -11 -35
-38 -35 -26 0 -30 4 -30 26 0 24 3 26 32 20 17 -3 34 -8 36 -11z m-2 -97 c10
-15 -24 -38 -58 -38 -29 0 -33 6 -22 34 7 19 69 22 80 4z"/>
<path d="M1595 354 c-27 -58 -51 -110 -53 -115 -2 -5 10 -9 27 -9 24 0 34 6
43 25 9 21 18 25 54 25 37 0 43 -3 46 -22 2 -18 11 -24 36 -26 17 -2 32 0 32
5 0 13 -31 187 -36 206 -4 13 -16 17 -52 17 l-47 -1 -50 -105z m104 -6 c1 -25
-3 -28 -29 -28 l-30 0 22 45 c18 37 24 42 30 28 3 -10 7 -30 7 -45z"/>
<path d="M1806 356 c-9 -58 -16 -110 -16 -115 0 -7 33 -11 90 -11 83 0 90 1
90 20 0 18 -7 20 -56 20 l-57 0 7 53 c4 28 10 71 13 95 6 41 5 42 -24 42 l-30
0 -17 -104z"/>
<path d="M57 96 c-4 -15 -6 -31 -2 -34 10 -10 16 6 13 35 l-3 28 -8 -29z"/>
<path d="M106 114 c6 -3 9 -16 6 -29 -2 -15 0 -25 7 -25 6 0 11 11 11 24 0 13
6 27 13 29 6 3 -1 5 -18 5 -16 0 -25 -2 -19 -4z"/>
<path d="M215 109 c-8 -12 -8 -11 20 -28 19 -11 18 -12 -4 -5 -16 4 -21 3 -17
-5 4 -6 13 -11 21 -11 24 0 29 22 9 38 -18 13 -18 14 5 7 16 -5 21 -4 17 4 -9
14 -43 14 -51 0z"/>
<path d="M296 104 c-11 -30 -6 -44 17 -44 16 0 18 3 8 9 -11 7 -11 9 0 14 12
5 12 7 0 15 -11 8 -10 11 5 15 17 4 17 5 -2 6 -12 0 -25 -6 -28 -15z"/>
<path d="M368 91 c-3 -17 -1 -31 4 -31 4 0 8 6 8 13 0 8 3 7 10 -3 11 -18 19
-11 22 21 2 18 -2 25 -18 27 -17 2 -22 -3 -26 -27z m32 9 c0 -5 -5 -10 -11
-10 -5 0 -7 5 -4 10 3 6 8 10 11 10 2 0 4 -4 4 -10z"/>
<path d="M452 94 c4 -39 24 -41 43 -5 8 17 12 31 7 31 -5 0 -14 -10 -20 -22
-8 -18 -11 -19 -11 -6 -1 9 -6 20 -12 23 -7 5 -9 -3 -7 -21z"/>
<path d="M538 114 c-5 -4 -8 -19 -8 -33 1 -23 2 -24 11 -8 11 19 9 53 -3 41z"/>
<path d="M587 113 c-4 -3 -7 -17 -7 -30 0 -16 6 -23 19 -23 11 0 23 5 26 11 4
6 0 9 -11 7 -12 -2 -19 3 -19 12 0 8 8 14 18 14 9 -1 17 2 17 7 0 10 -34 12
-43 2z"/>
<path d="M666 104 c-11 -30 -6 -44 17 -44 16 0 18 3 8 9 -11 7 -11 9 0 14 12
5 12 7 0 15 -11 8 -10 11 5 15 17 4 17 5 -2 6 -12 0 -25 -6 -28 -15z"/>
<path d="M776 94 c-7 -28 0 -46 12 -28 4 6 15 14 25 17 24 9 17 31 -10 35 -15
2 -22 -4 -27 -24z m34 6 c0 -5 -4 -10 -10 -10 -5 0 -10 5 -10 10 0 6 5 10 10
10 6 0 10 -4 10 -10z"/>
<path d="M854 95 c-8 -30 3 -46 16 -25 7 10 10 11 10 3 0 -27 16 -12 18 17 2
24 -2 30 -18 30 -13 0 -22 -9 -26 -25z m36 5 c0 -5 -4 -10 -10 -10 -5 0 -10 5
-10 10 0 6 5 10 10 10 6 0 10 -4 10 -10z"/>
<path d="M940 105 c-15 -18 -6 -45 13 -45 20 0 40 27 33 45 -7 19 -30 19 -46
0z m30 -15 c0 -11 -4 -20 -10 -20 -5 0 -10 9 -10 20 0 11 5 20 10 20 6 0 10
-9 10 -20z"/>
<path d="M1024 98 c3 -13 6 -26 6 -30 0 -21 27 -4 37 22 13 35 1 41 -15 8
l-11 -23 0 23 c-1 12 -6 22 -12 22 -7 0 -9 -9 -5 -22z"/>
<path d="M1106 97 c-5 -15 -6 -31 -2 -34 11 -11 18 5 14 34 l-4 28 -8 -28z"/>
<path d="M1150 90 c0 -27 3 -31 23 -28 16 2 22 10 22 28 0 18 -6 26 -22 28
-20 3 -23 -1 -23 -28z m36 -9 c-12 -19 -24 -12 -19 10 4 13 9 17 15 11 6 -6 7
-15 4 -21z"/>
<path d="M1237 113 c-4 -3 -7 -17 -7 -30 0 -17 6 -23 23 -23 16 0 18 3 8 9
-11 7 -11 9 0 14 12 5 12 7 0 15 -11 8 -10 11 5 15 17 4 17 5 -2 6 -11 0 -24
-2 -27 -6z"/>
<path d="M1306 94 c-8 -30 1 -46 13 -25 7 11 9 11 13 0 7 -19 17 -8 20 22 2
18 -2 25 -18 27 -16 2 -23 -4 -28 -24z m34 6 c0 -5 -4 -10 -10 -10 -5 0 -10 5
-10 10 0 6 5 10 10 10 6 0 10 -4 10 -10z"/>
</g>
</svg>
